# xmcd
#
# Track frame offsets: 
#        150
#        12693
#        22679
#        33965
#        46899
#        58196
#        66167
#        76018
#        85946
#        96448
#        107640
#        118506
#        128685
#        138855
#        151809
#        162533
#        172996
#        182520
#        194343
#        206143
#
# Disc length: 2866 seconds
#
# Revision: 1
# Processed by: cddbd v1.5.2PL0 Copyright (c) Steve Scherf et al.
# Submitted via: ExactAudioCopyFreeDBPlugin 1.0
#
DISCID=020b3014
DTITLE=Various Artist - Super Soul Sisters:  60 Timeless Soul Grooves
DTITLE=[Not Now Music]
DYEAR=2016
DGENRE=Soul
TTITLE0=Gladys Knight and The Pips - Letter Full of Tears
TTITLE1=Baby Washington - Hush Heart
TTITLE2=Varetta Dillard - You Better Come Home
TTITLE3=Irma Thomas - I Done Got Over It
TTITLE4=Aretha Franklin - Just for a Thrill
TTITLE5=Ketty Lester - River of Salt
TTITLE6=Fontella Bass - Bad Boy
TTITLE7=Dorothy Berry - You're Driving Me Crazy
TTITLE8=Brenda Holloway - Hey Fool
TTITLE9=Birdie Green - Tremblin'
TTITLE10=Claudine Clark - Freddy Blue Eyes
TTITLE11=Maxine Brown - My Life
TTITLE12=Carrie Grant and The Grandeurs - Take All of My Life
TTITLE13=Mable John - Who Wouldn't Love a Man Like That
TTITLE14=Martha Reeves and The Vandellas - My Baby Won't Come Back
TTITLE15=Ada Ray - Give Our Love a Chance
TTITLE16=Gerri Granger - What's Wrong with Me
TTITLE17=Barbara George - Don't Ask Me No Questions
TTITLE18=Johnnie Mae Matthews - The Headshrinker
TTITLE19=Barbara Lynn - Second Fiddle Girl
EXTD=
EXTT0=
EXTT1=
EXTT2=
EXTT3=
EXTT4=
EXTT5=
EXTT6=
EXTT7=
EXTT8=
EXTT9=
EXTT10=
EXTT11=
EXTT12=
EXTT13=
EXTT14=
EXTT15=
EXTT16=
EXTT17=
EXTT18=
EXTT19=
PLAYORDER=
